<svg width="82" height="51" viewBox="0 0 82 51" fill="none" xmlns="http://www.w3.org/2000/svg">
<path d="M1.76123 49.0977C13.5531 36.578 31.0825 35.8107 47.346 36.8272C53.889 37.2361 61.1392 37.6317 67.0065 40.9174C68.0115 41.4802 69.02 42.0615 69.832 42.8735C70.5573 43.5988 67.9293 41.9983 67.2041 41.273" stroke="black" stroke-width="3" stroke-linecap="round"/>
<path d="M7.4519 43.407C12.2724 39.1942 17.7662 34.5143 17.7662 27.5601C17.7662 25.556 18.3575 22.0948 16.9759 20.3677C16.489 19.759 14.9181 17.1539 16.1657 19.3995C18.5925 23.7674 20.183 29.781 25.2353 31.8479C28.2794 33.0932 30.0452 33.5331 33.06 32.0257C36.9525 30.0794 37.2131 26.7878 39.3829 23.4897C40.5742 21.679 41.596 17.6661 41.596 15.5267C41.596 14.0006 41.2403 18.565 41.2403 20.0911C41.2403 25.499 44.552 28.8677 49.4207 30.7611C56.3154 33.4424 60.9601 25.5536 63.924 20.7234C64.3611 20.011 67.3526 14.886 66.137 17.6212C65.0574 20.0504 64.4393 22.8865 63.8252 25.4656C63.0685 28.6437 64.6117 32.118 66.2161 34.792C67.3281 36.6454 68.6099 38.0552 70.1284 39.5737C71.4319 40.8772 72.2688 42.041 72.8947 39.8504" stroke="black" stroke-width="3" stroke-linecap="round"/>
<path d="M42.3074 3.57228C42.0244 3.60666 34.7306 4.81088 37.0514 6.41762C37.9219 7.02025 38.9855 7.53035 40.0549 7.40558C41.3037 7.25989 45.8253 6.81513 45.0737 4.56024C44.4051 2.55432 41.9058 1.95968 40.0944 2.58431C38.5807 3.10628 37.9609 4.79628 37.3281 6.06195" stroke="black" stroke-width="3" stroke-linecap="round"/>
<path d="M15.2766 9.97429C5.282 15.1294 17.0004 12.513 15.9089 10.33C15.2466 9.00543 12.5136 9.24404 11.3643 9.53958C9.19747 10.0967 10.6707 11.1258 12.4313 10.6856" stroke="black" stroke-width="3" stroke-linecap="round"/>
<path d="M71.1165 41.273C73.0108 42.3968 79.014 45.0687 79.6327 47.8529C79.7874 48.5492 79.0671 48.9829 78.5854 48.7421" stroke="black" stroke-width="3" stroke-linecap="round"/>
<path d="M70.0494 42.34C73.1308 43.4128 76.9314 44.5024 78.8621 47.3984C79.2662 48.0046 79.4857 48.5753 80.0081 49.0977" stroke="black" stroke-width="3" stroke-linecap="round"/>
<path d="M68.9824 3.92795C70.099 6.07172 71.5348 9.75374 74.2384 7.04992C75.0191 6.26919 74.6218 5.03367 74.1396 4.28361C72.6366 1.94546 69.5355 3.01676 69.6937 5.70628C69.8322 8.06004 74.3174 7.85386 74.3174 5.54821C74.3174 3.26129 68.4516 5.17004 70.0494 3.57228" stroke="black" stroke-width="3" stroke-linecap="round"/>
</svg>
