<svg width="31" height="28" viewBox="0 0 31 28" fill="none" xmlns="http://www.w3.org/2000/svg">
<path d="M14.3852 13.3549C16.3735 13.9698 19.2471 15.4121 19.7005 12.4657C19.8683 11.3748 19.0951 10.2564 18.4556 9.44254C16.4849 6.9344 13.4463 8.27405 11.362 9.81798C8.55394 11.898 6.2328 15.7479 8.85258 18.9665C11.5819 22.3197 17.8096 21.0214 20.7082 18.6899C23.3995 16.5251 23.3068 12.5732 21.3207 9.97604C18.7263 6.58344 14.3888 6.82255 10.6507 7.84204C6.92627 8.85779 5.43583 13.6407 6.02701 17.0696C6.86979 21.9578 10.7463 24.5112 15.6696 24.183C20.2328 23.8788 26.2652 22.0979 28.6909 17.8995C30.6772 14.4617 27.7612 8.97378 25.0552 6.67625C18.7353 1.31029 6.32273 2.90166 3.08287 11.1814C0.914982 16.7215 4.89294 22.6748 9.93935 24.8746C14.9551 27.0609 22.0778 26.2066 26.0432 22.3256C30.0786 18.3761 28.7878 12.3064 26.2803 7.90132C24.0011 3.89729 17.5308 0.894899 12.9625 1.97353C11.2919 2.36798 8.78572 3.44431 8.6945 5.45116C8.62637 6.95018 10.0315 7.41395 11.1842 6.95287" stroke="black" stroke-width="3" stroke-linecap="round"/>
</svg>
